<?xml version="1.0" encoding="UTF-8" standalone="no"?>
<!-- Created with Inkscape (http://www.inkscape.org/) -->

<svg
   width="42.014221mm"
   height="14.600208mm"
   viewBox="0 0 42.014221 14.600209"
   version="1.1"
   id="svg5"
   inkscape:version="1.1.2 (0a00cf5339, 2022-02-04)"
   sodipodi:docname="acrocord_logo_mini.svg"
   xmlns:inkscape="http://www.inkscape.org/namespaces/inkscape"
   xmlns:sodipodi="http://sodipodi.sourceforge.net/DTD/sodipodi-0.dtd"
   xmlns:xlink="http://www.w3.org/1999/xlink"
   xmlns="http://www.w3.org/2000/svg"
   xmlns:svg="http://www.w3.org/2000/svg">
  <sodipodi:namedview
     id="namedview7"
     pagecolor="#ffffff"
     bordercolor="#666666"
     borderopacity="1.0"
     inkscape:pageshadow="2"
     inkscape:pageopacity="0.0"
     inkscape:pagecheckerboard="0"
     inkscape:document-units="mm"
     showgrid="false"
     inkscape:zoom="4.3994184"
     inkscape:cx="54.325363"
     inkscape:cy="-55.234574"
     inkscape:window-width="2560"
     inkscape:window-height="1368"
     inkscape:window-x="0"
     inkscape:window-y="0"
     inkscape:window-maximized="1"
     inkscape:current-layer="layer1"
     fit-margin-top="0"
     fit-margin-left="0"
     fit-margin-right="0"
     fit-margin-bottom="0" />
  <defs
     id="defs2">
    <linearGradient
       inkscape:collect="always"
       id="linearGradient2487">
      <stop
         style="stop-color:#00f4e9;stop-opacity:1"
         offset="0"
         id="stop2483" />
      <stop
         style="stop-color:#00229a;stop-opacity:1"
         offset="1"
         id="stop2485" />
    </linearGradient>
    <linearGradient
       inkscape:collect="always"
       id="linearGradient1329">
      <stop
         style="stop-color:#00f4e9;stop-opacity:1"
         offset="0"
         id="stop1325" />
      <stop
         style="stop-color:#0032c7;stop-opacity:1"
         offset="1"
         id="stop1327" />
    </linearGradient>
    <inkscape:path-effect
       effect="spiro"
       id="path-effect45339"
       is_visible="true"
       lpeversion="1" />
    <linearGradient
       inkscape:collect="always"
       id="linearGradient44382">
      <stop
         style="stop-color:#00bee9;stop-opacity:1"
         offset="0"
         id="stop44378" />
      <stop
         style="stop-color:#0000d9;stop-opacity:1"
         offset="1"
         id="stop44380" />
    </linearGradient>
    <linearGradient
       id="linearGradient44294"
       inkscape:swatch="solid">
      <stop
         style="stop-color:#1aaee9;stop-opacity:1;"
         offset="0"
         id="stop44292" />
    </linearGradient>
    <linearGradient
       inkscape:collect="always"
       xlink:href="#linearGradient1329"
       id="linearGradient44384"
       x1="652.81897"
       y1="-58.574203"
       x2="-245.32565"
       y2="120.54768"
       gradientUnits="userSpaceOnUse"
       gradientTransform="matrix(1.295069,-0.00114231,8.9433555e-4,1.3337183,-150.77704,155.64486)" />
    <linearGradient
       inkscape:collect="always"
       xlink:href="#linearGradient44382"
       id="linearGradient45200"
       gradientUnits="userSpaceOnUse"
       x1="159.17073"
       y1="326.82858"
       x2="514.48236"
       y2="255.9585"
       gradientTransform="matrix(1.295069,-0.00114231,8.9433555e-4,1.3337183,-150.77704,155.64486)" />
    <linearGradient
       inkscape:collect="always"
       xlink:href="#linearGradient1329"
       id="linearGradient45202"
       gradientUnits="userSpaceOnUse"
       x1="507.55142"
       y1="187.75774"
       x2="148.67627"
       y2="-60.288113"
       gradientTransform="matrix(1.295069,-0.00114231,8.9433555e-4,1.3337183,-150.77704,155.64486)" />
    <linearGradient
       inkscape:collect="always"
       xlink:href="#linearGradient2487"
       id="linearGradient73422"
       x1="151.386"
       y1="57.762627"
       x2="82.113388"
       y2="57.900795"
       gradientUnits="userSpaceOnUse"
       gradientTransform="matrix(0.96831518,0,0,0.96831518,3.4627605,1.4020174)" />
    <linearGradient
       inkscape:collect="always"
       xlink:href="#linearGradient2487"
       id="linearGradient10004"
       x1="107.8546"
       y1="50.826328"
       x2="116.33642"
       y2="50.826328"
       gradientUnits="userSpaceOnUse" />
  </defs>
  <g
     inkscape:label="Calque 1"
     inkscape:groupmode="layer"
     id="layer1"
     transform="translate(-82.535172,-40.300406)">
    <text
       xml:space="preserve"
       style="font-style:normal;font-weight:normal;font-size:14.1111px;line-height:1000;font-family:sans-serif;letter-spacing:0px;word-spacing:0px;fill:#000000;fill-opacity:1;stroke:none;stroke-width:0.264583"
       x="116.89001"
       y="54.557053"
       id="text2197-2"><tspan
         sodipodi:role="line"
         id="tspan2195-1"
         style="font-style:normal;font-variant:normal;font-weight:bold;font-stretch:normal;font-size:14.1111px;font-family:'Noto Sans Tamil';-inkscape-font-specification:'Noto Sans Tamil Bold';stroke-width:0.264583"
         x="116.89001"
         y="54.557053" /></text>
    <g
       id="g14659"
       transform="matrix(0.03242057,2.5152042e-5,-2.1739873e-5,0.02851547,108.04633,40.297413)"
       style="mix-blend-mode:screen;fill:url(#linearGradient44384);fill-opacity:1;stroke:none;stroke-width:13.583;stroke-miterlimit:4;stroke-dasharray:none">
      <path
         class="st0"
         d="m 506.705,405.481 c 2.79,1.306 -3.11,-1.51 0,0 z"
         id="path14655"
         style="fill:url(#linearGradient45200);fill-opacity:1;stroke:none;stroke-width:13.583;stroke-miterlimit:4;stroke-dasharray:none" />
      <path
         class="st0"
         d="m 506.705,405.481 c -5.599,-2.719 -21.469,17.541 -24.916,20.58 -10.414,9.197 -23.086,17.63 -37.393,18.465 -33.091,1.928 -45.372,-33.918 -54.578,-58.745 C 368.207,327.924 321.733,269.32 252.44,302.67 c -29.2,14.058 -47.718,41.782 -64.05,68.609 -10.362,16.99 -26.374,54.605 -49.94,56.186 -29.928,2.008 -47.914,-27.272 -45.088,-54.365 3.199,-30.701 27.333,-52.828 49.086,-72.164 C 188.123,260.345 235.609,227.91 250.04,165.22 264.791,101.081 234.028,32.774 169.338,12.025 145.398,4.356 105.501,-16.917 66.917,26.34 c -65.97,73.932 -10.006,66.645 9.846,65.97 66.734,-2.275 95.08,10.281 85.696,45.506 -3.038,11.374 -9.81,23.024 -16.474,31.128 -4.266,5.545 -22.802,22.996 -31.012,30.132 C 96.259,215.346 77.297,231.43 60.075,249.3 28.033,282.525 4.307,322.761 2.761,369.972 -0.225,460.627 96.419,548.2 184.924,496.679 c 41.782,-24.322 56.71,-71.16 79.903,-110.534 9.668,-16.431 27.564,-37.801 47.789,-21.212 16.776,13.845 25.344,37.384 35.544,55.964 19.55,35.597 53.05,68.218 97.551,59.341 21.362,-4.265 39.294,-18.607 50.687,-36.841 2.879,-4.62 19.14,-33.784 10.307,-37.916 z"
         id="path14657"
         style="fill:url(#linearGradient45202);fill-opacity:1;stroke:none;stroke-width:13.583;stroke-miterlimit:4;stroke-dasharray:none" />
    </g>
    <text
       xml:space="preserve"
       style="font-style:normal;font-weight:normal;font-size:14.1111px;line-height:1000;font-family:sans-serif;letter-spacing:0px;word-spacing:0px;fill:#000000;fill-opacity:1;stroke:none;stroke-width:0.264583"
       x="107.24826"
       y="54.677944"
       id="text2197"><tspan
         sodipodi:role="line"
         id="tspan2195"
         style="font-style:normal;font-variant:normal;font-weight:bold;font-stretch:normal;font-size:14.1111px;font-family:'Noto Sans Tamil';-inkscape-font-specification:'Noto Sans Tamil Bold';stroke-width:0.264583;fill-opacity:1;fill:#000000"
         x="107.24826"
         y="54.677944">o</tspan></text>
  </g>
  <style
     type="text/css"
     id="style14653">
	.st0{fill:#000000;}
</style>
</svg>
